<svg xmlns="http://www.w3.org/2000/svg" width="32" height="32" viewBox="0 0 32 32" fill="none">
  <defs>
    <linearGradient id="bg-grad" x1="0" y1="0" x2="32" y2="32" gradientUnits="userSpaceOnUse">
      <stop offset="0%" stop-color="#0f172a" />
      <stop offset="50%" stop-color="#1e293b" />
      <stop offset="100%" stop-color="#020617" />
    </linearGradient>
    <linearGradient id="accent-grad" x1="4" y1="4" x2="28" y2="28" gradientUnits="userSpaceOnUse">
      <stop offset="0%" stop-color="#38bdf8" />
      <stop offset="50%" stop-color="#2563eb" />
      <stop offset="100%" stop-color="#7c3aed" />
    </linearGradient>
    <filter id="glow" x="-20%" y="-20%" width="140%" height="140%">
      <feGaussianBlur stdDeviation="1.5" result="blur" />
      <feComposite in="SourceGraphic" in2="blur" operator="over" />
    </filter>
  </defs>
  <!-- Background -->
  <rect width="32" height="32" rx="10" fill="url(#bg-grad)" />
  <rect x="0.5" y="0.5" width="31" height="31" rx="9.5" stroke="#334155" stroke-opacity="0.5" />
  
  <!-- Outer Glow Hexagon Node -->
  <path d="M16 5 L27 11.35 L27 24.15 L16 30.5 L5 24.15 L5 11.35 Z" 
        fill="none" 
        stroke="url(#accent-grad)" 
        stroke-width="1.5" 
        stroke-opacity="0.3" />

  <!-- Inner Archival Book Isometric / Node -->
  <g filter="url(#glow)">
    <!-- Book Left Page -->
    <path d="M16 11 L9 14.5 L9 22.5 L16 19 Z" 
          fill="url(#accent-grad)" 
          fill-opacity="0.8" />
    <!-- Book Right Page -->
    <path d="M16 11 L23 14.5 L23 22.5 L16 19 Z" 
          fill="url(#accent-grad)" />
    <!-- Book Spines / Center node line -->
    <line x1="16" y1="11" x2="16" y2="27" stroke="#ffffff" stroke-width="1.5" stroke-linecap="round" />
  </g>

  <!-- Connection Nodes (little circles) -->
  <circle cx="16" cy="11" r="1.8" fill="#ffffff" />
  <circle cx="9" cy="14.5" r="1.2" fill="#38bdf8" />
  <circle cx="23" cy="14.5" r="1.2" fill="#38bdf8" />
  <circle cx="9" cy="22.5" r="1.2" fill="#7c3aed" />
  <circle cx="23" cy="22.5" r="1.2" fill="#7c3aed" />
  <circle cx="16" cy="19" r="1.5" fill="#ffffff" />
</svg>
