<svg xmlns="http://www.w3.org/2000/svg" width="32" height="32" viewBox="0 0 32 32" fill="none">
  <defs>
    <linearGradient id="libre-grad" x1="0" y1="0" x2="32" y2="32" gradientUnits="userSpaceOnUse">
      <stop offset="0%" stop-color="#2563eb" />
      <stop offset="100%" stop-color="#1d4ed8" />
    </linearGradient>
  </defs>
  <rect width="32" height="32" rx="10" fill="url(#libre-grad)"/>
  <path d="M10 8H22C23.1046 8 24 8.89543 24 10V22C24 23.1046 23.1046 24 22 24H10C8.89543 24 8 23.1046 8 22V10C8 8.89543 8.89543 8 10 8Z" stroke="white" stroke-width="1.5" stroke-opacity="0.2"/>
  <path d="M12 12C12 10.8954 12.8954 10 14 10H18C19.1046 10 20 10.8954 20 12V20C20 21.1046 19.1046 22 18 22H14C12.8954 22 12 21.1046 12 20V12Z" fill="white" fill-opacity="0.1"/>
  <path d="M16 10V22M12 14H20M12 18H20" stroke="white" stroke-width="2" stroke-linecap="round" stroke-linejoin="round"/>
</svg>
